<?xml version="1.0" encoding="utf-8"?>
<!-- Generator: Adobe Illustrator 22.0.0, SVG Export Plug-In . SVG Version: 6.00 Build 0)  -->
<svg version="1.1" id="Layer_1" xmlns="http://www.w3.org/2000/svg" xmlns:xlink="http://www.w3.org/1999/xlink" x="0px" y="0px"
	 viewBox="0 0 682.7 694.3" style="enable-background:new 0 0 682.7 694.3;" xml:space="preserve">
<style type="text/css">
	.st0{clip-path:url(#SVGID_2_);}
	.st1{clip-path:url(#SVGID_4_);}
</style>
<g>
	<defs>
		<rect id="SVGID_1_" x="-0.1" y="30.5" width="578.5" height="641.6"/>
	</defs>
	<clipPath id="SVGID_2_">
		<use xlink:href="#SVGID_1_"  style="overflow:visible;"/>
	</clipPath>
	<g class="st0">
		<defs>
			
				<rect id="SVGID_3_" x="-26.2" y="68.9" transform="matrix(0.8106 0.5856 -0.5856 0.8106 265.968 -86.4727)" width="585.7" height="598.1"/>
		</defs>
		<clipPath id="SVGID_4_">
			<use xlink:href="#SVGID_3_"  style="overflow:visible;"/>
		</clipPath>
		<path class="st1" d="M-30,683.7c1.1-2.3,2-3.6,2.2-4.5c7.6-11.9,7.8-15.8-2-22.5c-6.1-4.1-11.6-8.5-8.9-19.3
			c6.8-1.7,14.3-3.8,22-5.3c9.7-2.2,15.6-7,21.2-16.8c16.8-27.9,35.6-54.9,53.2-82.6c7.6-11.9,14.5-23.4,22.4-34.7
			c4.2-6.6,4.7-12.9,3.1-20.1c-5.7-19.2-10.9-38.8-15.7-57.9c-1.8-7.7-7.3-12.1-15.4-15.6c-11.9,8.1-22.6,18.5-33.1,29.3
			C8.7,444.7-2.3,456-12.5,467.4c-3.1,2.9-5.4,5.9-8.2,9.3c-19,29.4-44.2,51.9-68.2,76.5c-5.4,5.9-9.7,5.1-15.2-0.8
			c-6.7-6.6-7.3-12.1-2.3-18.6c4.2-5.1,8.4-10.2,12.4-15.9c13.7-19.1,27.8-39.1,41.5-58.2c4.8-7,7.8-14.3,12.9-20.7
			c7.3-9.5,15.5-17.3,23.4-25.7C-9,406.1-2,399.1,5.1,392c-8.5-12.8-45.9-29-68.3-30.1c-16.3,40.2-33.5,81.8-50,123
			c-8.6,1.4-15.7,2.5-22.8,3.7c-2.4-10.3-1.7-19,3.9-28.8c7-11.5,11.1-25.5,16.1-37.8c5.5-14.2,10.2-28.6,14.8-43
			c3-8.8,6.6-17.9,3.6-27.8c-1.2-0.7-3.2-1.6-4.9-1.9c-19.5-4.5-38.5-9.5-57.7-13.5c-17.2-3.1-21.1-16.1-11.1-36.4
			c11.1-2.4,22.3-1.8,31.3,4.7c16.8,10.9,37.1,9.7,57.1,13.9c8.6-20,17.8-39,25.2-58.3c2.8-6.4,4.4-13.4,7.2-19.8
			c5.6-11.3,11.1-22.5,17.8-33.1c3.9-5.7,10.2-9.9,18.8-8.4c-0.2,3.9-0.2,8.3-1.3,12c-10.7,33.4-21.9,67.2-32.6,100.6
			c-4.7,14.4-4.1,15.5,8,20.6c19.9,8,39.4,17,59,24.5c10.9,4.4,14.3,2.1,22.2-7.7c3.7-4.7,3.9-8.6,2.7-13.8
			c-5.7-20.7-11.5-41.4-15.2-62.7c-4.9-23.5-8.4-47.2-10.8-71.7c-1-12-0.4-25.1,8.9-36.7c5.6-6.8,10.5-7.9,14-1.4
			c8.8,16.3,17.9,31.8,22.2,51.2c5.5,24.6,14.4,48.3,21.6,71.7c0.6,1.1,1.7,1.8,4.1,3.2c18-22.8,36.3-45,55.4-68.5
			c-9.8-8.2-19.4-15.8-27.5-25.2c-12.8-13.6-26.4-25.9-41.4-36.5c-12.4-8.7-10.3-17.6,3-27.4c5.7-3.9,10-3.1,14,0.1
			c16.8,10.9,33.5,21.8,49.7,33.1c9.5,6.2,18.8,13.2,28,20.3c5.2,3.9,9.8,5.2,15.7-1.1c22.5-24.4,45.1-48.8,67.3-73.7
			c0.6-0.4,0.5-1.9,1.4-4.7c-10.3-3.4-20.7-6.7-31-10.1c-11.5-4.1-23.6-7.7-35.4-12.3c-2-0.9-4.3-2.3-4.6-4.3
			c-2.4-7.3,0.6-14.6,5.1-20.7s10.1-11.4,17.3-9.6c17.8,4.2,35.6,8.5,53.1,13.6c12.1,3.7,23.9,8.3,35.4,12.3c2.9,1,6,1.1,9.7,0.8
			c11.1-0.9,22.3-0.4,30.2,8.4c0.3,2,3.8,2.6,7.8,4.4c-9.3,13-17.7,23.3-32.9,24c-4.6,0.1-7.7,0.1-11.4,4.8
			c-25.3,33.7-54,63.8-82.2,95c-0.6,0.4-0.5,1.9-2.2,4.5c15.1,13.6,34.1,21.4,50,36.6c10.7-11.8,18.2-25.2,24.9-37.2
			c9.8-17.9,18.4-36.4,27.3-54.5c9.5-18.4,19.1-22,37.5-16.7c3.3,7.5,1.3,14-3.1,21.5c-15.1,25.2-29.3,50.6-43.8,75.5
			c-3.6,6.2-8.4,11.7-12.3,17.4c-3.1,4.3-6.2,8.7-10.7,14.8c25.2,19.3,49.8,37.6,75.8,57c3.3-11.2,6.9-20.4,8.7-29.8
			c3.2-14.1,6.5-28.3,9.7-42.4c0.5-1.9,0.8-4.3,1.3-6.1c6.3-22.9,20.2-28.7,38.4-16.6c-4,18.4-8.6,37.2-12.9,56.6
			c-4.6,20.3-8.9,41.1-12.6,61.6c-0.5,3.3,1.5,7.2,4.1,9.1c20.6,18,41.1,36,61.7,54c11,8.9,22.6,17.4,33.6,26.3
			c9.8,8.2,18.6,17.1,28.7,25.9c-9,10.6-10.4,10.9-20.8,6c-13-6.8-26.2-12.6-38.9-20.4c-22.2-13.9-43.9-28.1-65.6-42.4
			c-5.8-3.5-11.3-6.5-18.2-10.7c-8,24.1-15.9,46.7-23.6,69.9c8.6,3,16.4,5.9,24.2,8.8c15.2,5.2,31.3,9.1,46.3,13.8
			c7.5,2.3,14.4,5.1,20.4,9.1c6.4,4.6,5.3,9.8-2.3,15.8c-7.3,6.5-14.5,7.7-22.8,5.2c-17.8-5.7-35.4-12.3-53.5-17.1
			c-7.5-2.3-15.8-3.4-24.7-5.5c-8,19.7-14.6,37.6-22.6,58.7c26-2.1,49.6-13.1,72.8-10.3c-2.1,11.9-9.7,19.3-22.8,23.8
			c-19.1,6.3-37.3,12.8-56.4,19.2c-6.8,1.7-11.1,5.3-12.4,13c0,1.5-0.8,2.8-1.7,4.1c-7.2,18.3-9.4,19.9-30.4,12.6
			c2.2-4.5,5.3-8.9,9.2-16c-6.3-0.2-9.7-0.8-13.2,0.1c-11.1,3.9-22.2,7.7-32.7,12.7c-17.1,7.2-33,15.1-51,16.2
			c-3.7,0.3-8.3,1.9-14,2.9c-1.4,23.3,6.3,43.4,8.1,65.3c-1.4,1.7-3.1,4.3-4.8,5.5c-11.9,9.6-23.1,7.6-28.4-5.2
			c-3.6-9.5-6-19.8-8.7-29.1c-0.6-1.1-0.6-2.6-0.6-4c-4.9-25-4.6-24.4-31.2-20.4c-22.3,3.3-44.8,7.5-66.9,4
			c-8.3-1-15.7,2.5-22.2,9.2C5,669.5,0.3,676.5-5.1,682.4C-9.6,688.4-19.3,690.6-30,683.7z M158.4,446c-4.8,7-9,13.6-13.7,19.1
			c-10.4,12.3-13.1,24.6-9.5,38.5c7,25.8,12.8,52.4,19.4,79.2c3,12.8,3.9,14.5,16.5,11.8c33.7-6.6,66.8-14.4,100.7-21.9
			c6.3-1.3,10-4.6,12.4-11.5c6-20.5,12.9-40.9,19.4-61.8c1.1-3.7-0.1-7.4-0.5-13.8c-6.3-0.2-12.9-0.9-19.2-1
			c-16.3,0-29.9-6.4-43.4-12.8c-6-2.6-11.5-7-17.9-8.7c-14.4-5.1-29-9.2-43.7-13.4C172.1,447,165.8,446.8,158.4,446z M184.4,409.5
			c2.6,1.9,3.5,3.6,5.2,3.9c31.9,11.7,63.3,23.8,94.9,35c10.3,3.4,20.4,9.1,32.7,7.4c1.1-2.3,2.8-4.9,3.3-6.8
			c6.9-20.4,13.5-39.8,20.3-60.1c2.2-6-0.1-8.9-3.6-12.4c-25.2-20.8-51.2-41.8-76.4-62.6c-1.2-0.7-3.4-0.6-6.3-1.6
			C231,344.8,208,376.9,184.4,409.5z M232,291.9c-6.1-5.5-10.2-10.2-15.4-14.1c-9-6.5-17.9-13.1-26.6-19.1
			c-10.1-7.2-11.5-7-20.8,4.6c-16.6,19.6-32.3,39.3-48.9,58.9c-22,25.5-23.1,27.7-11.2,55.4c1.5,4.2,5,7.8,8.7,9
			c9.5,4.7,19.9,8,30.5,11.9C178.7,365.7,203.9,329,232,291.9z M115,598.7c-4.8-17.6-9.4-34.6-13.9-51.6c-0.3-2-1.8-3.3-2.6-4.9
			c-11,11.3-40.9,59.3-42.8,68.8C71.7,611.9,94.3,607.7,115,598.7z"/>
	</g>
</g>
</svg>
