<?xml version="1.0" encoding="utf-8"?>
<!-- Generator: Adobe Illustrator 22.0.0, SVG Export Plug-In . SVG Version: 6.00 Build 0)  -->
<svg version="1.1" id="Layer_1" xmlns="http://www.w3.org/2000/svg" xmlns:xlink="http://www.w3.org/1999/xlink" x="0px" y="0px"
	 viewBox="0 0 841.9 595.3" style="enable-background:new 0 0 841.9 595.3;" xml:space="preserve">
<g>
	<g>
		<path d="M159.5,331l-88.6-72.8c-5-4.1-5.7-11.4-1.6-16.4s11.4-5.7,16.4-1.6l79.6,65.4l50.9-62c4.1-5,11.4-5.7,16.4-1.6
			c5,4.1,5.7,11.4,1.6,16.4l-58.3,71C171.8,334.4,164.5,335.1,159.5,331L159.5,331z"/>
	</g>
	<g>
		<path d="M308.2,333.6l-88.6-72.8c-5-4.1-5.7-11.4-1.6-16.4c4.1-5,11.4-5.7,16.4-1.6l79.6,65.4l50.9-62c4.1-5,11.4-5.7,16.4-1.6
			c5,4.1,5.7,11.4,1.6,16.4l-58.3,71C320.5,336.9,313.1,337.6,308.2,333.6L308.2,333.6z"/>
	</g>
	<g>
		<path d="M456.2,335l-88.7-72.8c-5-4.1-5.7-11.4-1.6-16.4c4.1-5,11.4-5.7,16.4-1.6l79.6,65.4l50.9-62c4.1-5,11.4-5.7,16.4-1.6
			c5,4.1,5.7,11.4,1.6,16.4l-58.3,71C468.5,338.3,461.1,339.1,456.2,335L456.2,335z"/>
	</g>
	<g>
		<path d="M604.8,337.5l-88.6-72.7c-5-4.1-5.7-11.4-1.6-16.4c4.1-5,11.4-5.7,16.4-1.6l79.6,65.4l50.9-62c4.1-5,11.4-5.7,16.4-1.6
			c5,4.1,5.7,11.4,1.6,16.4l-58.3,71C617.1,340.9,609.8,341.6,604.8,337.5L604.8,337.5z"/>
	</g>
	<g>
		<path d="M725.3,318.1l-62.1-50.9c-5-4.1-5.7-11.4-1.6-16.4c4.1-5,11.4-5.7,16.4-1.6l62.1,51c5,4.1,5.7,11.4,1.6,16.4
			C737.6,321.4,730.2,322.1,725.3,318.1L725.3,318.1z"/>
	</g>
</g>
<g>
	<g>
		<path d="M163.5,200.8l-88.6-72.8c-5-4.1-5.7-11.4-1.6-16.4c4.1-5,11.4-5.7,16.4-1.6l79.6,65.4l50.9-62c4.1-5,11.4-5.7,16.4-1.6
			c5,4.1,5.7,11.4,1.6,16.4l-58.3,71C175.9,204.2,168.5,204.9,163.5,200.8L163.5,200.8z"/>
	</g>
	<g>
		<path d="M312.2,203.4l-88.6-72.8c-5-4.1-5.7-11.4-1.6-16.4c4.1-5,11.4-5.7,16.4-1.6l79.6,65.4l50.9-62c4.1-5,11.4-5.7,16.4-1.6
			c5,4.1,5.7,11.4,1.6,16.4l-58.3,71C324.5,206.7,317.1,207.5,312.2,203.4L312.2,203.4z"/>
	</g>
	<g>
		<path d="M460.2,204.8L371.5,132c-5-4.1-5.7-11.4-1.6-16.4c4.1-5,11.4-5.7,16.4-1.6l79.6,65.4l50.9-62c4.1-5,11.4-5.7,16.4-1.6
			c5,4.1,5.7,11.4,1.6,16.4l-58.3,71C472.5,208.2,465.1,208.9,460.2,204.8L460.2,204.8z"/>
	</g>
	<g>
		<path d="M608.8,207.3l-88.6-72.7c-5-4.1-5.7-11.4-1.6-16.4c4.1-5,11.4-5.7,16.4-1.6l79.6,65.4l50.9-62c4.1-5,11.4-5.7,16.4-1.6
			c5,4.1,5.7,11.4,1.6,16.4l-58.3,71C621.1,210.7,613.8,211.4,608.8,207.3L608.8,207.3z"/>
	</g>
	<g>
		<path d="M729.3,187.9l-62.1-50.9c-5-4.1-5.7-11.4-1.6-16.4c4.1-5,11.4-5.7,16.4-1.6l62.1,51c5,4.1,5.7,11.4,1.6,16.4
			C741.6,191.3,734.2,192,729.3,187.9L729.3,187.9z"/>
	</g>
</g>
<g>
	<g>
		<path d="M152.3,464.6l-88.6-72.8c-5-4.1-5.7-11.4-1.6-16.4s11.4-5.7,16.4-1.6l79.6,65.4l50.9-62c4.1-5,11.4-5.7,16.4-1.6
			c5,4.1,5.7,11.4,1.6,16.4l-58.3,71C164.6,467.9,157.3,468.7,152.3,464.6L152.3,464.6z"/>
	</g>
	<g>
		<path d="M300.9,467.1l-88.6-72.8c-5-4.1-5.7-11.4-1.6-16.4c4.1-5,11.4-5.7,16.4-1.6l79.6,65.4l50.9-62c4.1-5,11.4-5.7,16.4-1.6
			c5,4.1,5.7,11.4,1.6,16.4l-58.3,71C313.2,470.5,305.9,471.2,300.9,467.1L300.9,467.1z"/>
	</g>
	<g>
		<path d="M448.9,468.5l-88.7-72.8c-5-4.1-5.7-11.4-1.6-16.4c4.1-5,11.4-5.7,16.4-1.6l79.6,65.4l50.9-62c4.1-5,11.4-5.7,16.4-1.6
			c5,4.1,5.7,11.4,1.6,16.4l-58.3,71C461.2,471.9,453.9,472.6,448.9,468.5L448.9,468.5z"/>
	</g>
	<g>
		<path d="M597.5,471.1l-88.6-72.7c-5-4.1-5.7-11.4-1.6-16.4c4.1-5,11.4-5.7,16.4-1.6l79.6,65.4l50.9-62c4.1-5,11.4-5.7,16.4-1.6
			c5,4.1,5.7,11.4,1.6,16.4l-58.3,71C609.9,474.4,602.5,475.2,597.5,471.1L597.5,471.1z"/>
	</g>
	<g>
		<path d="M718,451.6L656,400.7c-5-4.1-5.7-11.4-1.6-16.4c4.1-5,11.4-5.7,16.4-1.6l62.1,51c5,4.1,5.7,11.4,1.6,16.4
			C730.4,455,723,455.7,718,451.6L718,451.6z"/>
	</g>
</g>
</svg>
