<?xml version="1.0" encoding="utf-8"?>
<!-- Generator: Adobe Illustrator 22.0.0, SVG Export Plug-In . SVG Version: 6.00 Build 0)  -->
<svg version="1.1" id="Layer_1" xmlns="http://www.w3.org/2000/svg" xmlns:xlink="http://www.w3.org/1999/xlink" x="0px" y="0px"
	 viewBox="0 0 478.6 458.4" style="enable-background:new 0 0 478.6 458.4;" xml:space="preserve">
<style type="text/css">
	.st0{fill:#0000FF;}
</style>
<g>
	<path class="st0" d="M290,389.6c-9.1,0.4-18.2,1.2-27.3,2.1c-2.9,0.4-5.4,0.4-7.9,1.2c-23.2,8.7-46.4,6.2-70,2.9
		c-19.9-2.9-38.9-8.7-56.8-18.2c-3.7-1.7-7.9-2.9-12-4.6c-9.1-3.7-14.9-11.2-21.5-17.8c-11.6-10.8-21.1-23.6-27.8-37.7
		c-5.4-11.6-7.9-23.6-6.2-36c0.4-4.6,0.4-9.1,0.8-13.7c2.5-19.5,0.8-39.4,7.9-58.4c4.1-12,11.2-22,15.7-33.6
		c0.4-0.4,0.8-0.8,1.2-1.7c8.3-9.9,15.3-20.7,24.9-29c12.4-10.4,23.2-22.8,38.5-30.2c10.4-5,19.5-12,29.4-17.8
		c9.1-5,18.2-9.9,27.8-13.3c7.5-2.5,15.7-2.5,23.2-2.1c18.2,0.8,36,5,53.4,9.5c12,2.9,22,9.5,31.5,16.2
		c19.1,13.7,35.6,30.2,50.5,48.1c6.2,7.5,12.4,14.9,19.1,22c8.3,8.7,10.8,19.9,13.3,30.7c2.5,11.6,3.7,24,5.4,35.6
		c2.1,15.7,1.7,31.5,0.4,47.2c-0.8,9.1-9.5,26.9-15.7,34.4c-2.1,2.1-3.7,5-5,7.5c-5,9.9-12,18.2-19.5,26.1
		c-3.3,3.3-7.9,5.8-11.6,8.3c-13.7,8.7-27.8,16.6-43.5,20.7c-5.8,2.1-12,1.7-18.2,2.5C290,390,290,390,290,389.6z M204.7,389.2
		c1.7,0,3.7,0,5.4,0c15.7,0.4,30.7-1.7,45.2-8.3c5.4-2.5,11.6-3.3,17.8-3.3c25.3-0.8,49.3-6.6,70.8-20.3
		c9.1-5.8,18.6-11.6,24.9-20.7c6.6-9.5,13.3-19.1,19.5-28.6c4.6-7,6.6-14.9,7.5-23.6c1.2-12-1.7-23.6-1.2-35.2
		c0.4-9.1,0.4-18.2-3.7-26.9c-2.5-5.4-4.6-11.2-6.2-17c-3.3-11.2-10.4-19.5-18.6-27.3c-12-11.6-24-22.8-35.6-34.8
		c-12.4-12.8-28.6-20.3-42.3-31.1c-19.5-6.2-38.9-14.1-60.1-12.4c-13.7,1.2-26.9,3.3-38.5,11.6c-8.3,5.8-18.2,9.5-26.9,15.3
		c-9.1,5.8-19.5,9.5-27.3,17.8c-5.8,5.8-12.8,10.4-18.6,15.7c-3.7,3.3-7,7.5-9.9,11.6c-6.2,8.7-12,17-17.4,26.1
		c-7.9,13.7-15.3,27.3-16.6,43.9c-0.8,11.2-2.1,22.4-4.1,33.1c-2.1,11.6-0.4,22,4.1,32.7c12.4,31.9,31.5,57.2,65,68.8
		c0.4,0,0.4,0.4,0.8,0.4C159.5,386.7,181.5,391.3,204.7,389.2z"/>
	<path class="st0" d="M67.1,354.8c7,3.3,10.8,6.6,12.4,12c2.9,7.9,9.1,12.8,15.7,17c20.7,13.7,43.1,22,67.1,26.5
		c14.9,2.9,29.8,5.8,45.2,6.6c10.8,0.8,21.5-1.2,32.7-2.1c8.7-0.4,17.4-0.4,26.5-1.2c8.7-0.8,17.4-2.1,26.1-3.3
		c4.6-0.4,9.1-1.7,13.7-1.7c18.6-0.4,36-4.1,51.4-15.3c7.9-5.8,17-10.8,25.3-16.2c9.9-6.6,15.7-16.2,20.7-26.9
		c9.5-20.3,11.2-41.8,14.5-63.4c2.1-11.2-0.4-22.4,0.4-33.6c1.2-14.9,0.4-30.2-0.8-45.2c-1.2-14.9-7-27.8-14.9-39.4
		c-9.9-14.9-20.3-29.4-32.3-42.7c-9.1-10.4-21.1-18.2-31.9-26.9c-22.8-18.6-49.7-26.1-78.3-27.8c-11.2-0.8-22.4-2.5-33.6-2.5
		c-12.8-0.4-26.1-0.4-38.9,0.8c-6.2,0-12.4,2.9-18.2,5.4c-14.5,5.8-29,10.8-42.7,17.8c-7.5,3.7-14.9,9.9-20.3,16.6
		c-10.8,12.8-20.7,26.9-30.2,41c-5.4,8.3-7.5,17.8-7.9,27.8c0,3.3,0.4,7.5-4.1,9.1c-6.6-5.4-7.9-9.9-5.4-17.4
		c7-20.3,17.4-38.5,31.5-54.3c5-5.8,9.1-11.6,14.9-17c11.2-9.9,23.6-17,37.3-22.4c12-4.6,23.6-9.5,35.6-13.3
		c7-2.1,14.1-3.3,21.5-3.7c33.1-1.2,66.3,0.4,98.6,8.7c12.4,3.3,25.7,6.6,36.5,13.7c23.6,14.9,46,31.9,61.3,56.3
		c7.9,12.4,15.3,24.4,19.9,38.5c2.5,8.3,7.9,15.3,9.5,24.4c2.9,17,2.9,34,4.1,50.5c1.7,22.4-4.1,43.9-6.2,65.9c0,0.8,0,1.7-0.4,2.9
		c-6.2,16.2-11.6,32.7-18.2,48.5c-7,16.2-20.3,25.7-36,32.7c-7,2.9-13.3,7-19.9,10.8c-3.3,2.1-7,2.5-11.2,2.5
		c-5.8-0.4-12,0.8-18.2,1.7c-5.4,0.4-10.8,0.4-16.2,1.2c-3.7,0.4-7.5,0.8-10.4,2.5c-7.9,4.6-16.2,6.2-24.4,6.2
		c-15.7-0.4-30.7,2.5-46,4.6c-14.5,2.1-28.6,1.2-42.7-1.2c-13.7-2.5-26.9-4.6-39.4-8.3c-13.7-4.1-26.9-9.9-39.4-16.6
		c-9.1-5.4-17.4-12.4-23.2-22.4c-3.7-6.2-7.5-12.4-9.9-19.1C67.5,361,67.5,358.9,67.1,354.8z"/>
	<path class="st0" d="M430.9,158c-2.9,1.2-5.4,1.2-7-2.5c-3.3-7-6.2-14.1-5.4-21.5c0.4-5.8-1.7-10.8-5.8-14.9
		c-9.9-9.9-19.5-19.5-29.8-29c-2.9-2.9-6.6-5.4-10.4-7c-7-2.9-11.2-8.7-16.6-14.5c2.1-1.2,3.3-2.9,4.6-2.9
		c14.5,0,27.3,4.1,38.1,13.3c12.8,10.8,21.1,24.9,27.3,40.2c0.8,1.7,1.2,3.3,1.2,5.4C428.4,135.6,429.6,146.4,430.9,158z"/>
	<path class="st0" d="M137.1,63.5c-0.4,5.8-4.6,6.2-7.9,7c-17.8,5.8-32.7,17-46,29.8c-4.6,4.1-7.5,10.4-11.2,15.3
		c-1.2,2.1-2.5,4.1-4.6,5.4c-1.2,0.8-3.7,1.7-4.6,0.8c-0.8-0.4-1.7-3.3-1.2-4.6c3.7-8.7,7-17.4,14.9-23.6c8.7-7,17.4-14.1,26.5-20.7
		C112.7,66.4,124.3,63.9,137.1,63.5z"/>
	<path class="st0" d="M426.3,365.6c-0.4,3.3-0.4,6.6-0.8,9.5c-1.7,9.5-5,18.6-12,25.7c-6.6,6.6-12.8,13.7-19.9,19.9
		c-4.1,4.1-9.1,8.3-16.2,6.6c-1.7-5,0.4-8.7,4.1-10.8c12.4-6.2,19.1-18.6,29-27.3c1.7-1.2,2.1-4.1,2.9-6.2c2.1-5,3.3-10.4,5.8-15.3
		c0.8-1.7,3.7-2.9,5.8-4.1C425.5,364.3,425.9,364.7,426.3,365.6z"/>
	<path class="st0" d="M70,395.8c8.3,6.6,16.2,12.4,24,18.6c1.2,1.2,2.5,3.7,2.1,5.4c-0.8,3.3-3.7,2.9-5.8,1.7
		c-7-4.1-14.1-7.9-20.7-12.8C63.8,404.1,64.2,402.4,70,395.8z"/>
	<path class="st0" d="M86.2,62.3c-1.2,1.7-2.1,3.3-3.7,5c-4.6,4.6-9.1,8.7-13.7,13.3c-2.5,2.9-5,4.6-8.7,0.4
		c4.6-11.2,13.7-16.2,24-19.9C84.9,61.5,85.3,61.9,86.2,62.3z"/>
	<path class="st0" d="M412.2,73.9c2.1-2.9,3.3-5,5-7.9c2.9,2.9,5.8,5,7.9,7.5c0.8,1.2,0.8,4.1,0.4,4.6c-1.2,1.2-4.1,2.1-5.4,1.2
		C417.2,78.4,415.1,76,412.2,73.9z"/>
	<path class="st0" d="M413.5,429.4c1.2-7,4.1-9.5,12.8-11.6C426.7,425.6,421.8,429.8,413.5,429.4z"/>
	<path class="st0" d="M366.7,246.7c0.4,4.6,0.8,10.4,1.2,16.6c0,1.2,0.4,2.5,0.4,3.7c-3.3,19.5-7.9,38.1-23.6,51.8
		c-1.7,1.7-3.7,3.3-5,5.4c-8.7,14.1-22.4,20.3-36.9,24.9c-9.1,2.9-18.2,5-27.3,6.6c-5.4,0.8-11.2,0.8-16.2-0.4
		c-10.4-2.9-19.9-0.4-29.4,2.5c-7,2.1-13.7,4.6-20.7,6.6c-2.9,0.8-6.2,1.2-9.1,0.4c-12-2.5-24.4-3.7-36-9.5
		c-11.6-5.4-22.8-10.8-33.1-18.6c-8.7-6.2-16.2-13.3-21.5-22.8c-2.9-5.4-6.2-10.4-10.4-14.9c-8.3-9.9-9.9-20.7-8.3-33.1
		c0.8-5-0.4-10.4,0.4-15.3c0.8-7.5,2.1-14.9,4.6-22c2.9-7.5,7.5-14.5,12-21.1c4.1-6.2,9.1-11.6,13.7-17c5.8-7.5,12.8-13.7,21.5-17.8
		c16.2-7.9,30.2-18.6,43.9-30.7c4.1-3.7,8.7-6.6,12.8-10.4c10.4-9.1,22.4-10.4,35.6-7.5c6.2,1.2,12.4,2.1,18.6,2.5
		c11.6,1.2,22.4,5.4,32.7,10.4c29.8,14.5,53,36,67.1,65.9c0.8,1.7,1.2,3.3,2.5,5C365.8,217.7,368.3,230.9,366.7,246.7z M357.5,248.7
		c0.4-5.4,0.4-8.7,0.8-12c0.8-6.6-0.4-12-5.8-16.2c-2.1-2.1-4.1-4.6-5.4-7.5c-9.9-23.6-29.4-38.5-49.3-53.4
		c-1.7-1.2-3.7-2.1-5.8-2.9c-8.7-3.3-17-6.2-25.7-9.1c-5-1.7-9.9-4.6-15.3-5.8c-8.7-2.1-17.8-3.3-26.9-4.6
		c-3.7-0.4-8.3-0.4-11.6,0.8c-7.5,3.3-15.7,6.2-21.5,11.6c-8.7,7.5-17.4,13.7-26.5,20.3c-6.6,5-12.8,9.9-21.1,12.4
		c-2.9,1.2-5.8,3.3-8.3,5.4c-11.6,9.9-22,21.5-30.2,34.8c-5.8,9.5-9.5,19.5-7.9,31.1c0.4,2.5-0.4,5.4-0.8,8.3
		c-0.4,2.5-1.2,5.4-0.8,7.9c4.1,19.9,16.6,34.8,29,49.7c0,0.4,0.4,0.4,0.8,0.4c17.4,13.3,37.3,21.1,58.4,26.1
		c15.7,3.7,31.5,5.8,47.2-1.7c9.9-4.6,21.1-5,32.3-2.9c5.4,1.2,10.8,0.8,16.2,0c13.3-1.2,25.7-6.2,38.1-11.2
		c6.6-2.9,12-6.6,16.6-12.4c3.3-4.1,6.6-8.7,10.8-12.4c9.9-9.9,12.8-22.8,14.1-35.6C359.2,262.4,358,254.5,357.5,248.7z"/>
	<path class="st0" d="M333.5,242.9c-1.2,6.6-2.9,11.6-2.9,16.2c0.4,12.8-3.7,24.4-9.9,35.2c-1.2,2.5-3.3,4.6-5.4,6.2
		c-11.2,8.3-22.8,15.7-36.5,19.9c-3.7,1.2-6.6,1.2-10.4-1.2c-5.4-4.1-11.2-4.1-17.8-4.1c-13.3,0.4-24.4,6.2-36.9,9.1
		c-11.2,2.5-21.1,0.8-30.7-4.6c-3.3-1.7-6.2-3.7-9.5-5c-13.7-5.4-22.4-15.7-29.8-27.8c-1.7-2.5-3.3-5-5-7.9
		c-9.1-14.1-9.9-28.6-5-44.3c1.7-4.1,2.9-8.7,4.1-12.8c2.9-12.4,12.4-19.9,22-26.5c6.2-4.1,13.7-6.6,20.7-9.1
		c8.3-2.9,14.9-7,21.5-12.8c12.4-11.2,28.2-15.3,44.7-15.3c17.8,0,31.9,8.7,44.7,19.5c9.9,8.3,18.2,18.6,27.3,28.2
		c5,5.4,8.7,11.6,9.9,19.1C330.2,231.7,332.3,238,333.5,242.9z M242,173.3c-13.7,0.4-26.9,3.3-37.3,12.4
		c-9.5,8.3-20.3,13.3-31.5,17.4c-14.1,5-24.4,14.1-29.4,28.6c-0.4,1.2-0.8,2.5-1.7,3.3c-5,8.3-5.4,16.6-2.9,26.1
		c6.2,23.6,18.2,41.4,41.4,50.1c2.9,1.2,5.8,1.7,8.7,2.9c7.9,3.3,15.7,3.7,24,2.1c13.3-2.5,26.9-5.4,40.2-7c4.1-0.4,8.7,0,12.4,1.7
		c6.2,2.5,12,2.1,17.8,0c3.3-1.2,7-2.5,9.9-4.6c7.5-5,16.2-9.5,21.5-16.2c9.9-12,8.7-27.8,9.5-42.7c0.4-5.8-1.7-12-3.3-17.8
		c-1.2-3.7-2.5-7.9-5-10.4c-10.4-12-21.5-23.2-34.4-32.3C269.7,177.9,256.9,172.1,242,173.3z"/>
	<path class="st0" d="M242.8,292.6c-4.6-0.8-10.4,1.2-16.2,4.1c-8.7,4.6-18.6,5.4-28.6,4.1c-24-2.9-47.2-36.5-29-63
		c2.9-4.1,5.4-7.9,7.9-12.4c3.7-7.5,9.9-11.2,18.2-11.2c7.9,0,13.7-4.1,19.5-9.1c2.1-1.7,4.1-3.7,6.2-5.4
		c10.8-10.8,24-11.2,38.1-8.7c1.2,0.4,2.5,0.4,3.3,1.2c8.3,6.6,17.4,12.4,24.9,19.9c6.2,6.2,9.9,14.1,9.5,24
		c-0.4,7.9,1.2,15.7-0.4,23.6c-2.5,12-8.3,20.7-19.9,26.1C265.6,290.2,256,293.5,242.8,292.6z M248.6,282.7c5-0.8,10.4-1.2,14.9-2.9
		c12.4-5,25.7-9.5,25.7-26.5c0-6.6-0.4-13.3-2.1-19.5c-1.2-4.6-4.1-9.5-7.9-12.8c-4.1-4.6-9.5-8.3-14.9-12c-2.5-1.7-5.4-2.9-8.3-3.3
		c-12.4-2.5-23.6-0.8-33.1,8.3c-6.6,6.2-14.9,10.8-24,12c-8.7,1.2-14.5,6.2-20.3,12.4c-9.9,11.2-6.6,31.5,1.7,40.2
		c13.3,14.1,28.6,13.7,41.8,8.3C231.2,283.1,239.1,279.8,248.6,282.7z"/>
	<path class="st0" d="M264.3,233c0.8,9.9-2.1,17.4-6.6,24.4c-3.3,5.4-8.3,8.3-14.5,7c-5.4-1.2-11.2-3.3-16.2-5.8
		c-2.5-1.2-4.1-4.1-5.4-7c-3.7-8.3-0.8-15.3,4.6-21.5c5.4-6.2,12.4-7.9,19.9-5.4C252.3,226.8,258.1,230.1,264.3,233z M258.9,241.7
		c-7-5.4-14.5-9.5-23.6-8.3c-5.4,0.8-8.3,4.1-8.7,9.1c-0.4,5,1.7,8.7,6.6,10.4C245.7,257.4,253.1,257.4,258.9,241.7z"/>
</g>
</svg>
