<?xml version="1.0" encoding="utf-8"?>
<!-- Generator: Adobe Illustrator 22.0.0, SVG Export Plug-In . SVG Version: 6.00 Build 0)  -->
<svg version="1.1" id="Layer_1" xmlns="http://www.w3.org/2000/svg" xmlns:xlink="http://www.w3.org/1999/xlink" x="0px" y="0px"
	 viewBox="0 0 847 687.4" style="enable-background:new 0 0 847 687.4;" xml:space="preserve">
<g>
	<path d="M604.7,111.4c-27.7,0-42-10.2-54.7-19.2c-11.7-8.3-21.8-15.4-43-15.4c-21.2,0-31.3,7.2-43,15.4
		c-12.7,9-27.1,19.2-54.7,19.2c-27.7,0-42-10.2-54.7-19.2c-11.7-8.3-21.8-15.4-43-15.4c-21.2,0-31.3,7.2-43,15.4
		c-12.7,9-27,19.2-54.7,19.2c-27.7,0-42-10.2-54.7-19.2c-11.7-8.3-21.8-15.4-43-15.4V56.5c27.7,0,42,10.2,54.7,19.2
		c11.7,8.3,21.8,15.4,43,15.4c21.2,0,31.3-7.2,43-15.4c12.7-9,27-19.2,54.7-19.2c27.7,0,42,10.2,54.7,19.2
		c11.7,8.3,21.8,15.4,43,15.4c21.2,0,31.3-7.2,43-15.4c12.7-9,27.1-19.2,54.7-19.2c27.7,0,42,10.2,54.7,19.2
		c11.7,8.3,21.8,15.4,43,15.4s31.3-7.2,43-15.4c12.7-9,27.1-19.2,54.7-19.2v20.2c-21.2,0-31.3,7.2-43,15.4
		C646.7,101.2,632.3,111.4,604.7,111.4z"/>
	<path d="M604.7,158.9c-27.7,0-42-10.2-54.7-19.2c-11.7-8.3-21.8-15.4-43-15.4c-21.2,0-31.3,7.2-43,15.4
		c-12.7,9-27.1,19.2-54.7,19.2c-27.7,0-42-10.2-54.7-19.2c-11.7-8.3-21.8-15.4-43-15.4c-21.2,0-31.3,7.2-43,15.4
		c-12.7,9-27,19.2-54.7,19.2c-27.7,0-42-10.2-54.7-19.2c-11.7-8.3-21.8-15.4-43-15.4V104c27.7,0,42,10.2,54.7,19.2
		c11.7,8.3,21.8,15.4,43,15.4c21.2,0,31.3-7.2,43-15.4c12.7-9,27-19.2,54.7-19.2c27.7,0,42,10.2,54.7,19.2
		c11.7,8.3,21.8,15.4,43,15.4c21.2,0,31.3-7.2,43-15.4c12.7-9,27.1-19.2,54.7-19.2c27.7,0,42,10.2,54.7,19.2
		c11.7,8.3,21.8,15.4,43,15.4s31.3-7.2,43-15.4c12.7-9,27.1-19.2,54.7-19.2v20.2c-21.2,0-31.3,7.2-43,15.4
		C646.7,148.7,632.3,158.9,604.7,158.9z"/>
	<path d="M604.7,206.5c-27.7,0-42-10.2-54.7-19.2c-11.7-8.3-21.8-15.4-43-15.4c-21.2,0-31.3,7.2-43,15.4
		c-12.7,9-27.1,19.2-54.7,19.2c-27.7,0-42-10.2-54.7-19.2c-11.7-8.3-21.8-15.4-43-15.4c-21.2,0-31.3,7.2-43,15.4
		c-12.7,9-27,19.2-54.7,19.2c-27.7,0-42-10.2-54.7-19.2c-11.7-8.3-21.8-15.4-43-15.4v-20.2c27.7,0,42,10.2,54.7,19.2
		c11.7,8.3,21.8,15.4,43,15.4c21.2,0,31.3-7.2,43-15.4c12.7-9,27-19.2,54.7-19.2c27.7,0,42,10.2,54.7,19.2
		c11.7,8.3,21.8,15.4,43,15.4c21.2,0,31.3-7.2,43-15.4c12.7-9,27.1-19.2,54.7-19.2c27.7,0,42,10.2,54.7,19.2
		c11.7,8.3,21.8,15.4,43,15.4s31.3-7.2,43-15.4c12.7-9,27.1-19.2,54.7-19.2v20.2c-21.2,0-31.3,7.2-43,15.4
		C646.7,196.3,632.3,206.5,604.7,206.5z"/>
	<path d="M604.7,254c-27.7,0-42-10.2-54.7-19.2c-11.7-8.3-21.8-15.4-43-15.4c-21.2,0-31.3,7.2-43,15.4c-12.7,9-27.1,19.2-54.7,19.2
		c-27.7,0-42-10.2-54.7-19.2c-11.7-8.3-21.8-15.4-43-15.4c-21.2,0-31.3,7.2-43,15.4c-12.7,9-27,19.2-54.7,19.2
		c-27.7,0-42-10.2-54.7-19.2c-11.7-8.3-21.8-15.4-43-15.4v-20.2c27.7,0,42,10.2,54.7,19.2c11.7,8.3,21.8,15.4,43,15.4
		c21.2,0,31.3-7.2,43-15.4c12.7-9,27-19.2,54.7-19.2c27.7,0,42,10.2,54.7,19.2c11.7,8.3,21.8,15.4,43,15.4c21.2,0,31.3-7.2,43-15.4
		c12.7-9,27.1-19.2,54.7-19.2c27.7,0,42,10.2,54.7,19.2c11.7,8.3,21.8,15.4,43,15.4s31.3-7.2,43-15.4c12.7-9,27.1-19.2,54.7-19.2
		v20.2c-21.2,0-31.3,7.2-43,15.4C646.7,243.8,632.3,254,604.7,254z"/>
	<path d="M604.7,301.5c-27.7,0-42-10.2-54.7-19.2c-11.7-8.3-21.8-15.4-43-15.4c-21.2,0-31.3,7.2-43,15.4
		c-12.7,9-27.1,19.2-54.7,19.2c-27.7,0-42-10.2-54.7-19.2c-11.7-8.3-21.8-15.4-43-15.4c-21.2,0-31.3,7.2-43,15.4
		c-12.7,9-27,19.2-54.7,19.2c-27.7,0-42-10.2-54.7-19.2c-11.7-8.3-21.8-15.4-43-15.4v-20.2c27.7,0,42,10.2,54.7,19.2
		c11.7,8.3,21.8,15.4,43,15.4c21.2,0,31.3-7.2,43-15.4c12.7-9,27-19.2,54.7-19.2c27.7,0,42,10.2,54.7,19.2
		c11.7,8.3,21.8,15.4,43,15.4c21.2,0,31.3-7.2,43-15.4c12.7-9,27.1-19.2,54.7-19.2c27.7,0,42,10.2,54.7,19.2
		c11.7,8.3,21.8,15.4,43,15.4s31.3-7.2,43-15.4c12.7-9,27.1-19.2,54.7-19.2v20.2c-21.2,0-31.3,7.2-43,15.4
		C646.7,291.3,632.3,301.5,604.7,301.5z"/>
	<path d="M604.7,349.1c-27.7,0-42-10.2-54.7-19.2c-11.7-8.3-21.8-15.4-43-15.4c-21.2,0-31.3,7.2-43,15.4
		c-12.7,9-27.1,19.2-54.7,19.2c-27.7,0-42-10.2-54.7-19.2c-11.7-8.3-21.8-15.4-43-15.4c-21.2,0-31.3,7.2-43,15.4
		c-12.7,9-27,19.2-54.7,19.2c-27.7,0-42-10.2-54.7-19.2c-11.7-8.3-21.8-15.4-43-15.4v-20.2c27.7,0,42,10.2,54.7,19.2
		c11.7,8.3,21.8,15.4,43,15.4c21.2,0,31.3-7.2,43-15.4c12.7-9,27-19.2,54.7-19.2c27.7,0,42,10.2,54.7,19.2
		c11.7,8.3,21.8,15.4,43,15.4c21.2,0,31.3-7.2,43-15.4c12.7-9,27.1-19.2,54.7-19.2c27.7,0,42,10.2,54.7,19.2
		c11.7,8.3,21.8,15.4,43,15.4s31.3-7.2,43-15.4c12.7-9,27.1-19.2,54.7-19.2v20.2c-21.2,0-31.3,7.2-43,15.4
		C646.7,338.9,632.3,349.1,604.7,349.1z"/>
	<path d="M604.7,396.6c-27.7,0-42-10.2-54.7-19.2c-11.7-8.3-21.8-15.4-43-15.4c-21.2,0-31.3,7.2-43,15.4
		c-12.7,9-27.1,19.2-54.7,19.2c-27.7,0-42-10.2-54.7-19.2c-11.7-8.3-21.8-15.4-43-15.4c-21.2,0-31.3,7.2-43,15.4
		c-12.7,9-27,19.2-54.7,19.2c-27.7,0-42-10.2-54.7-19.2c-11.7-8.3-21.8-15.4-43-15.4v-20.3c27.7,0,42,10.2,54.7,19.2
		c11.7,8.3,21.8,15.4,43,15.4c21.2,0,31.3-7.2,43-15.4c12.7-9,27-19.2,54.7-19.2c27.7,0,42,10.2,54.7,19.2
		c11.7,8.3,21.8,15.4,43,15.4c21.2,0,31.3-7.2,43-15.4c12.7-9,27.1-19.2,54.7-19.2c27.7,0,42,10.2,54.7,19.2
		c11.7,8.3,21.8,15.4,43,15.4s31.3-7.2,43-15.4c12.7-9,27.1-19.2,54.7-19.2V362c-21.2,0-31.3,7.2-43,15.4
		C646.7,386.4,632.3,396.6,604.7,396.6z"/>
	<path d="M604.7,444.2c-27.7,0-42-10.2-54.7-19.2c-11.7-8.3-21.8-15.4-43-15.4c-21.2,0-31.3,7.2-43,15.4
		c-12.7,9-27.1,19.2-54.7,19.2c-27.7,0-42-10.2-54.7-19.2c-11.7-8.3-21.8-15.4-43-15.4c-21.2,0-31.3,7.2-43,15.4
		c-12.7,9-27,19.2-54.7,19.2c-27.7,0-42-10.2-54.7-19.2c-11.7-8.3-21.8-15.4-43-15.4v-20.2c27.7,0,42,10.2,54.7,19.2
		c11.7,8.3,21.8,15.4,43,15.4c21.2,0,31.3-7.2,43-15.4c12.7-9,27-19.2,54.7-19.2c27.7,0,42,10.2,54.7,19.2
		c11.7,8.3,21.8,15.4,43,15.4c21.2,0,31.3-7.2,43-15.4c12.7-9,27.1-19.2,54.7-19.2c27.7,0,42,10.2,54.7,19.2
		c11.7,8.3,21.8,15.4,43,15.4s31.3-7.2,43-15.4c12.7-9,27.1-19.2,54.7-19.2v20.2c-21.2,0-31.3,7.2-43,15.4
		C646.7,434,632.3,444.2,604.7,444.2z"/>
	<path d="M604.7,491.7c-27.7,0-42-10.2-54.7-19.2c-11.7-8.3-21.8-15.4-43-15.4c-21.2,0-31.3,7.2-43,15.4
		c-12.7,9-27.1,19.2-54.7,19.2c-27.7,0-42-10.2-54.7-19.2c-11.7-8.3-21.8-15.4-43-15.4c-21.2,0-31.3,7.2-43,15.4
		c-12.7,9-27,19.2-54.7,19.2c-27.7,0-42-10.2-54.7-19.2c-11.7-8.3-21.8-15.4-43-15.4v-20.3c27.7,0,42,10.2,54.7,19.2
		c11.7,8.3,21.8,15.4,43,15.4c21.2,0,31.3-7.2,43-15.4c12.7-9,27-19.2,54.7-19.2c27.7,0,42,10.2,54.7,19.2
		c11.7,8.3,21.8,15.4,43,15.4c21.2,0,31.3-7.2,43-15.4c12.7-9,27.1-19.2,54.7-19.2c27.7,0,42,10.2,54.7,19.2
		c11.7,8.3,21.8,15.4,43,15.4s31.3-7.2,43-15.4c12.7-9,27.1-19.2,54.7-19.2v20.2c-21.2,0-31.3,7.2-43,15.4
		C646.7,481.5,632.3,491.7,604.7,491.7z"/>
	<path d="M604.7,539.2c-27.7,0-42-10.2-54.7-19.2c-11.7-8.3-21.8-15.4-43-15.4c-21.2,0-31.3,7.2-43,15.4
		c-12.7,9-27.1,19.2-54.7,19.2c-27.7,0-42-10.2-54.7-19.2c-11.7-8.3-21.8-15.4-43-15.4c-21.2,0-31.3,7.2-43,15.4
		c-12.7,9-27,19.2-54.7,19.2c-27.7,0-42-10.2-54.7-19.2c-11.7-8.3-21.8-15.4-43-15.4v-20.2c27.7,0,42,10.2,54.7,19.2
		c11.7,8.3,21.8,15.4,43,15.4c21.2,0,31.3-7.2,43-15.4c12.7-9,27-19.2,54.7-19.2c27.7,0,42,10.2,54.7,19.2
		c11.7,8.3,21.8,15.4,43,15.4c21.2,0,31.3-7.2,43-15.4c12.7-9,27.1-19.2,54.7-19.2c27.7,0,42,10.2,54.7,19.2
		c11.7,8.3,21.8,15.4,43,15.4s31.3-7.2,43-15.4c12.7-9,27.1-19.2,54.7-19.2v20.2c-21.2,0-31.3,7.2-43,15.4
		C646.7,529.1,632.3,539.2,604.7,539.2z"/>
	<path d="M604.7,586.8c-27.7,0-42-10.2-54.7-19.2c-11.7-8.3-21.8-15.4-43-15.4c-21.2,0-31.3,7.2-43,15.4
		c-12.7,9-27.1,19.2-54.7,19.2c-27.7,0-42-10.2-54.7-19.2c-11.7-8.3-21.8-15.4-43-15.4c-21.2,0-31.3,7.2-43,15.4
		c-12.7,9-27,19.2-54.7,19.2c-27.7,0-42-10.2-54.7-19.2c-11.7-8.3-21.8-15.4-43-15.4v-20.2c27.7,0,42,10.2,54.7,19.2
		c11.7,8.3,21.8,15.4,43,15.4c21.2,0,31.3-7.2,43-15.4c12.7-9,27-19.2,54.7-19.2c27.7,0,42,10.2,54.7,19.2
		c11.7,8.3,21.8,15.4,43,15.4c21.2,0,31.3-7.2,43-15.4c12.7-9,27.1-19.2,54.7-19.2c27.7,0,42,10.2,54.7,19.2
		c11.7,8.3,21.8,15.4,43,15.4s31.3-7.2,43-15.4c12.7-9,27.1-19.2,54.7-19.2v20.2c-21.2,0-31.3,7.2-43,15.4
		C646.7,576.6,632.3,586.8,604.7,586.8z"/>
	<path d="M604.7,634.3c-27.7,0-42-10.2-54.7-19.2c-11.7-8.3-21.8-15.4-43-15.4c-21.2,0-31.3,7.2-43,15.4
		c-12.7,9-27.1,19.2-54.7,19.2c-27.7,0-42-10.2-54.7-19.2c-11.7-8.3-21.8-15.4-43-15.4c-21.2,0-31.3,7.2-43,15.4
		c-12.7,9-27,19.2-54.7,19.2c-27.7,0-42-10.2-54.7-19.2c-11.7-8.3-21.8-15.4-43-15.4v-20.2c27.7,0,42,10.2,54.7,19.2
		c11.7,8.3,21.8,15.4,43,15.4c21.2,0,31.3-7.2,43-15.4c12.7-9,27-19.2,54.7-19.2c27.7,0,42,10.2,54.7,19.2
		c11.7,8.3,21.8,15.4,43,15.4c21.2,0,31.3-7.2,43-15.4c12.7-9,27.1-19.2,54.7-19.2c27.7,0,42,10.2,54.7,19.2
		c11.7,8.3,21.8,15.4,43,15.4s31.3-7.2,43-15.4c12.7-9,27.1-19.2,54.7-19.2v20.2c-21.2,0-31.3,7.2-43,15.4
		C646.7,624.1,632.3,634.3,604.7,634.3z"/>
</g>
</svg>
